M48
; DRILL file {KiCad (5.1.5)-3} date 15.05.2020 10:26:41
; FORMAT={-:-/ absolute / metric / decimal}
; #@! TF.CreationDate,2020-05-15T10:26:41+02:00
; #@! TF.GenerationSoftware,Kicad,Pcbnew,(5.1.5)-3
; #@! TF.FileFunction,Plated,1,2,PTH
FMAT,2
METRIC
T1C0.700
T2C0.750
T3C0.800
T4C1.000
T5C3.200
%
G90
G05
T2
X82.55Y-43.815
X83.82Y-42.545
X85.09Y-43.815
T3
X68.58Y-42.545
X76.2Y-42.545
X68.58Y-33.655
X76.2Y-33.655
X68.58Y-38.1
X76.2Y-38.1
X50.165Y-21.59
X50.165Y-24.13
X50.165Y-26.67
X82.59Y-35.56
X85.09Y-35.56
X102.235Y-21.59
X102.235Y-24.13
X102.235Y-26.67
T4
X70.86Y-28.24
X72.245Y-25.4
X73.63Y-28.24
X75.015Y-25.4
X76.4Y-28.24
X77.785Y-25.4
X79.17Y-28.24
X80.555Y-25.4
X81.94Y-28.24
T5
X63.9Y-27.94
X88.9Y-27.94
T1
G00X95.78Y-41.99
M15
G01X94.88Y-41.99
M16
G05
G00X95.78Y-51.99
M15
G01X94.88Y-51.99
M16
G05
G00X100.33Y-47.44
M15
G01X100.33Y-46.54
M16
G05
G00X52.07Y-46.54
M15
G01X52.07Y-47.44
M16
G05
G00X56.62Y-41.99
M15
G01X57.52Y-41.99
M16
G05
G00X56.62Y-51.99
M15
G01X57.52Y-51.99
M16
G05
G00X52.07Y-33.84
M15
G01X52.07Y-34.74
M16
G05
G00X56.62Y-29.29
M15
G01X57.52Y-29.29
M16
G05
G00X56.62Y-39.29
M15
G01X57.52Y-39.29
M16
G05
G00X95.78Y-29.29
M15
G01X94.88Y-29.29
M16
G05
G00X95.78Y-39.29
M15
G01X94.88Y-39.29
M16
G05
G00X100.33Y-34.74
M15
G01X100.33Y-33.84
M16
G05
T0
M30
