G04 #@! TF.GenerationSoftware,KiCad,Pcbnew,(5.1.5)-3*
G04 #@! TF.CreationDate,2020-05-15T10:26:44+02:00*
G04 #@! TF.ProjectId,kenwood-tnc,6b656e77-6f6f-4642-9d74-6e632e6b6963,rev?*
G04 #@! TF.SameCoordinates,Original*
G04 #@! TF.FileFunction,Copper,L1,Top*
G04 #@! TF.FilePolarity,Positive*
%FSLAX46Y46*%
G04 Gerber Fmt 4.6, Leading zero omitted, Abs format (unit mm)*
G04 Created by KiCad (PCBNEW (5.1.5)-3) date 2020-05-15 10:26:44*
%MOMM*%
%LPD*%
G04 APERTURE LIST*
%ADD10O,2.416000X1.208000*%
%ADD11O,1.208000X2.416000*%
%ADD12C,1.600000*%
%ADD13R,1.600000X1.600000*%
%ADD14R,1.300000X1.300000*%
%ADD15C,1.300000*%
%ADD16C,1.440000*%
%ADD17O,1.600000X1.600000*%
%ADD18C,4.000000*%
%ADD19C,0.250000*%
G04 APERTURE END LIST*
D10*
X95330000Y-51990000D03*
X95330000Y-41990000D03*
D11*
X100330000Y-46990000D03*
D10*
X95330000Y-39290000D03*
X95330000Y-29290000D03*
D11*
X100330000Y-34290000D03*
D10*
X57070000Y-29290000D03*
X57070000Y-39290000D03*
D11*
X52070000Y-34290000D03*
D10*
X57070000Y-41990000D03*
X57070000Y-51990000D03*
D11*
X52070000Y-46990000D03*
D12*
X82590000Y-35560000D03*
D13*
X85090000Y-35560000D03*
D14*
X82550000Y-43815000D03*
D15*
X85090000Y-43815000D03*
X83820000Y-42545000D03*
D16*
X50165000Y-21590000D03*
X50165000Y-24130000D03*
X50165000Y-26670000D03*
D17*
X68580000Y-38100000D03*
D13*
X76200000Y-38100000D03*
X76200000Y-42545000D03*
D17*
X68580000Y-42545000D03*
D13*
X70860000Y-28240000D03*
D12*
X73630000Y-28240000D03*
X76400000Y-28240000D03*
X79170000Y-28240000D03*
X81940000Y-28240000D03*
X72245000Y-25400000D03*
X75015000Y-25400000D03*
X77785000Y-25400000D03*
X80555000Y-25400000D03*
D18*
X88900000Y-27940000D03*
X63900000Y-27940000D03*
D12*
X76200000Y-33655000D03*
D17*
X68580000Y-33655000D03*
D16*
X102235000Y-26670000D03*
X102235000Y-24130000D03*
X102235000Y-21590000D03*
D19*
X95330000Y-30144000D02*
X95330000Y-29290000D01*
X89914000Y-35560000D02*
X95330000Y-30144000D01*
X85090000Y-35560000D02*
X89914000Y-35560000D01*
X59796768Y-34780001D02*
X50165000Y-25148233D01*
X71370003Y-32529999D02*
X69120001Y-34780001D01*
X78428629Y-32529999D02*
X71370003Y-32529999D01*
X50165000Y-25148233D02*
X50165000Y-24130000D01*
X81458630Y-35560000D02*
X78428629Y-32529999D01*
X69120001Y-34780001D02*
X59796768Y-34780001D01*
X82590000Y-35560000D02*
X81458630Y-35560000D01*
X76200000Y-38100000D02*
X76200000Y-33655000D01*
X79375000Y-38100000D02*
X83820000Y-42545000D01*
X76200000Y-38100000D02*
X79375000Y-38100000D01*
X84114999Y-44790001D02*
X85090000Y-43815000D01*
X77395001Y-44790001D02*
X84114999Y-44790001D01*
X76200000Y-43595000D02*
X77395001Y-44790001D01*
X76200000Y-42545000D02*
X76200000Y-43595000D01*
X86009238Y-43815000D02*
X85090000Y-43815000D01*
X97759000Y-43815000D02*
X86009238Y-43815000D01*
X100330000Y-46386000D02*
X97759000Y-43815000D01*
X100330000Y-46990000D02*
X100330000Y-46386000D01*
X71985001Y-30249999D02*
X68580000Y-33655000D01*
X71985001Y-28219997D02*
X71985001Y-30249999D01*
X74804998Y-25400000D02*
X71985001Y-28219997D01*
X75015000Y-25400000D02*
X74804998Y-25400000D01*
X102954999Y-22309999D02*
X102235000Y-21590000D01*
X103280001Y-22635001D02*
X102954999Y-22309999D01*
X103280001Y-27396997D02*
X103280001Y-22635001D01*
X101854999Y-28821999D02*
X103280001Y-27396997D01*
X101854999Y-29758001D02*
X101854999Y-28821999D01*
X102235000Y-38441998D02*
X102235000Y-30138002D01*
X101854999Y-38821999D02*
X102235000Y-38441998D01*
X101854999Y-39758001D02*
X101854999Y-38821999D01*
X101854999Y-41521999D02*
X102235000Y-41141998D01*
X101854999Y-48019229D02*
X101854999Y-41521999D01*
X96909227Y-52965001D02*
X101854999Y-48019229D01*
X102235000Y-30138002D02*
X101854999Y-29758001D01*
X57191001Y-52965001D02*
X96909227Y-52965001D01*
X102235000Y-41141998D02*
X102235000Y-40138002D01*
X57070000Y-52844000D02*
X57191001Y-52965001D01*
X102235000Y-40138002D02*
X101854999Y-39758001D01*
X57070000Y-51990000D02*
X57070000Y-52844000D01*
X55612000Y-39290000D02*
X57070000Y-39290000D01*
X55152182Y-39290000D02*
X55612000Y-39290000D01*
X48594999Y-32732817D02*
X55152182Y-39290000D01*
X48594999Y-22141768D02*
X48594999Y-32732817D01*
X49146767Y-21590000D02*
X48594999Y-22141768D01*
X50165000Y-21590000D02*
X49146767Y-21590000D01*
X96788000Y-51990000D02*
X95330000Y-51990000D01*
X97247818Y-51990000D02*
X96788000Y-51990000D01*
X101305001Y-47932817D02*
X97247818Y-51990000D01*
X101305001Y-27286603D02*
X101305001Y-47932817D01*
X101189999Y-27171601D02*
X101305001Y-27286603D01*
X101189999Y-25175001D02*
X101189999Y-27171601D01*
X102235000Y-24130000D02*
X101189999Y-25175001D01*
M02*
