G04 #@! TF.GenerationSoftware,KiCad,Pcbnew,(5.1.5)-3*
G04 #@! TF.CreationDate,2020-05-15T10:26:44+02:00*
G04 #@! TF.ProjectId,kenwood-tnc,6b656e77-6f6f-4642-9d74-6e632e6b6963,rev?*
G04 #@! TF.SameCoordinates,Original*
G04 #@! TF.FileFunction,Legend,Top*
G04 #@! TF.FilePolarity,Positive*
%FSLAX46Y46*%
G04 Gerber Fmt 4.6, Leading zero omitted, Abs format (unit mm)*
G04 Created by KiCad (PCBNEW (5.1.5)-3) date 2020-05-15 10:26:44*
%MOMM*%
%LPD*%
G04 APERTURE LIST*
%ADD10C,0.150000*%
%ADD11C,0.127000*%
%ADD12C,0.120000*%
%ADD13C,0.015000*%
G04 APERTURE END LIST*
D10*
X67795000Y-48712380D02*
X67795000Y-47712380D01*
X68366428Y-48712380D02*
X67937857Y-48140952D01*
X68366428Y-47712380D02*
X67795000Y-48283809D01*
X69175952Y-48664761D02*
X69080714Y-48712380D01*
X68890238Y-48712380D01*
X68795000Y-48664761D01*
X68747380Y-48569523D01*
X68747380Y-48188571D01*
X68795000Y-48093333D01*
X68890238Y-48045714D01*
X69080714Y-48045714D01*
X69175952Y-48093333D01*
X69223571Y-48188571D01*
X69223571Y-48283809D01*
X68747380Y-48379047D01*
X69652142Y-48045714D02*
X69652142Y-48712380D01*
X69652142Y-48140952D02*
X69699761Y-48093333D01*
X69795000Y-48045714D01*
X69937857Y-48045714D01*
X70033095Y-48093333D01*
X70080714Y-48188571D01*
X70080714Y-48712380D01*
X70556904Y-48045714D02*
X70556904Y-48712380D01*
X70556904Y-48140952D02*
X70604523Y-48093333D01*
X70699761Y-48045714D01*
X70842619Y-48045714D01*
X70937857Y-48093333D01*
X70985476Y-48188571D01*
X70985476Y-48712380D01*
X71366428Y-48045714D02*
X71556904Y-48712380D01*
X71747380Y-48236190D01*
X71937857Y-48712380D01*
X72128333Y-48045714D01*
X72652142Y-48712380D02*
X72556904Y-48664761D01*
X72509285Y-48617142D01*
X72461666Y-48521904D01*
X72461666Y-48236190D01*
X72509285Y-48140952D01*
X72556904Y-48093333D01*
X72652142Y-48045714D01*
X72795000Y-48045714D01*
X72890238Y-48093333D01*
X72937857Y-48140952D01*
X72985476Y-48236190D01*
X72985476Y-48521904D01*
X72937857Y-48617142D01*
X72890238Y-48664761D01*
X72795000Y-48712380D01*
X72652142Y-48712380D01*
X73556904Y-48712380D02*
X73461666Y-48664761D01*
X73414047Y-48617142D01*
X73366428Y-48521904D01*
X73366428Y-48236190D01*
X73414047Y-48140952D01*
X73461666Y-48093333D01*
X73556904Y-48045714D01*
X73699761Y-48045714D01*
X73795000Y-48093333D01*
X73842619Y-48140952D01*
X73890238Y-48236190D01*
X73890238Y-48521904D01*
X73842619Y-48617142D01*
X73795000Y-48664761D01*
X73699761Y-48712380D01*
X73556904Y-48712380D01*
X74747380Y-48712380D02*
X74747380Y-47712380D01*
X74747380Y-48664761D02*
X74652142Y-48712380D01*
X74461666Y-48712380D01*
X74366428Y-48664761D01*
X74318809Y-48617142D01*
X74271190Y-48521904D01*
X74271190Y-48236190D01*
X74318809Y-48140952D01*
X74366428Y-48093333D01*
X74461666Y-48045714D01*
X74652142Y-48045714D01*
X74747380Y-48093333D01*
X75842619Y-47712380D02*
X76414047Y-47712380D01*
X76128333Y-48712380D02*
X76128333Y-47712380D01*
X76747380Y-48712380D02*
X76747380Y-47712380D01*
X77318809Y-48712380D01*
X77318809Y-47712380D01*
X78366428Y-48617142D02*
X78318809Y-48664761D01*
X78175952Y-48712380D01*
X78080714Y-48712380D01*
X77937857Y-48664761D01*
X77842619Y-48569523D01*
X77795000Y-48474285D01*
X77747380Y-48283809D01*
X77747380Y-48140952D01*
X77795000Y-47950476D01*
X77842619Y-47855238D01*
X77937857Y-47760000D01*
X78080714Y-47712380D01*
X78175952Y-47712380D01*
X78318809Y-47760000D01*
X78366428Y-47807619D01*
X79461666Y-48045714D02*
X79699761Y-48712380D01*
X79937857Y-48045714D01*
X80842619Y-48712380D02*
X80271190Y-48712380D01*
X80556904Y-48712380D02*
X80556904Y-47712380D01*
X80461666Y-47855238D01*
X80366428Y-47950476D01*
X80271190Y-47998095D01*
X60674761Y-51887380D02*
X60674761Y-50887380D01*
X61055714Y-50887380D01*
X61150952Y-50935000D01*
X61198571Y-50982619D01*
X61246190Y-51077857D01*
X61246190Y-51220714D01*
X61198571Y-51315952D01*
X61150952Y-51363571D01*
X61055714Y-51411190D01*
X60674761Y-51411190D01*
X62246190Y-51792142D02*
X62198571Y-51839761D01*
X62055714Y-51887380D01*
X61960476Y-51887380D01*
X61817619Y-51839761D01*
X61722380Y-51744523D01*
X61674761Y-51649285D01*
X61627142Y-51458809D01*
X61627142Y-51315952D01*
X61674761Y-51125476D01*
X61722380Y-51030238D01*
X61817619Y-50935000D01*
X61960476Y-50887380D01*
X62055714Y-50887380D01*
X62198571Y-50935000D01*
X62246190Y-50982619D01*
X63389047Y-51839761D02*
X63531904Y-51887380D01*
X63770000Y-51887380D01*
X63865238Y-51839761D01*
X63912857Y-51792142D01*
X63960476Y-51696904D01*
X63960476Y-51601666D01*
X63912857Y-51506428D01*
X63865238Y-51458809D01*
X63770000Y-51411190D01*
X63579523Y-51363571D01*
X63484285Y-51315952D01*
X63436666Y-51268333D01*
X63389047Y-51173095D01*
X63389047Y-51077857D01*
X63436666Y-50982619D01*
X63484285Y-50935000D01*
X63579523Y-50887380D01*
X63817619Y-50887380D01*
X63960476Y-50935000D01*
X64389047Y-51220714D02*
X64389047Y-52220714D01*
X64389047Y-51268333D02*
X64484285Y-51220714D01*
X64674761Y-51220714D01*
X64770000Y-51268333D01*
X64817619Y-51315952D01*
X64865238Y-51411190D01*
X64865238Y-51696904D01*
X64817619Y-51792142D01*
X64770000Y-51839761D01*
X64674761Y-51887380D01*
X64484285Y-51887380D01*
X64389047Y-51839761D01*
X65674761Y-51839761D02*
X65579523Y-51887380D01*
X65389047Y-51887380D01*
X65293809Y-51839761D01*
X65246190Y-51744523D01*
X65246190Y-51363571D01*
X65293809Y-51268333D01*
X65389047Y-51220714D01*
X65579523Y-51220714D01*
X65674761Y-51268333D01*
X65722380Y-51363571D01*
X65722380Y-51458809D01*
X65246190Y-51554047D01*
X66579523Y-51887380D02*
X66579523Y-51363571D01*
X66531904Y-51268333D01*
X66436666Y-51220714D01*
X66246190Y-51220714D01*
X66150952Y-51268333D01*
X66579523Y-51839761D02*
X66484285Y-51887380D01*
X66246190Y-51887380D01*
X66150952Y-51839761D01*
X66103333Y-51744523D01*
X66103333Y-51649285D01*
X66150952Y-51554047D01*
X66246190Y-51506428D01*
X66484285Y-51506428D01*
X66579523Y-51458809D01*
X67055714Y-51887380D02*
X67055714Y-50887380D01*
X67150952Y-51506428D02*
X67436666Y-51887380D01*
X67436666Y-51220714D02*
X67055714Y-51601666D01*
X68246190Y-51839761D02*
X68150952Y-51887380D01*
X67960476Y-51887380D01*
X67865238Y-51839761D01*
X67817619Y-51744523D01*
X67817619Y-51363571D01*
X67865238Y-51268333D01*
X67960476Y-51220714D01*
X68150952Y-51220714D01*
X68246190Y-51268333D01*
X68293809Y-51363571D01*
X68293809Y-51458809D01*
X67817619Y-51554047D01*
X68722380Y-51887380D02*
X68722380Y-51220714D01*
X68722380Y-51411190D02*
X68770000Y-51315952D01*
X68817619Y-51268333D01*
X68912857Y-51220714D01*
X69008095Y-51220714D01*
X54483095Y-25662380D02*
X54483095Y-24662380D01*
X54864047Y-24662380D01*
X54959285Y-24710000D01*
X55006904Y-24757619D01*
X55054523Y-24852857D01*
X55054523Y-24995714D01*
X55006904Y-25090952D01*
X54959285Y-25138571D01*
X54864047Y-25186190D01*
X54483095Y-25186190D01*
X56054523Y-25567142D02*
X56006904Y-25614761D01*
X55864047Y-25662380D01*
X55768809Y-25662380D01*
X55625952Y-25614761D01*
X55530714Y-25519523D01*
X55483095Y-25424285D01*
X55435476Y-25233809D01*
X55435476Y-25090952D01*
X55483095Y-24900476D01*
X55530714Y-24805238D01*
X55625952Y-24710000D01*
X55768809Y-24662380D01*
X55864047Y-24662380D01*
X56006904Y-24710000D01*
X56054523Y-24757619D01*
X54173571Y-27312380D02*
X54173571Y-26312380D01*
X54506904Y-27026666D01*
X54840238Y-26312380D01*
X54840238Y-27312380D01*
X55316428Y-27312380D02*
X55316428Y-26312380D01*
X56364047Y-27217142D02*
X56316428Y-27264761D01*
X56173571Y-27312380D01*
X56078333Y-27312380D01*
X55935476Y-27264761D01*
X55840238Y-27169523D01*
X55792619Y-27074285D01*
X55745000Y-26883809D01*
X55745000Y-26740952D01*
X55792619Y-26550476D01*
X55840238Y-26455238D01*
X55935476Y-26360000D01*
X56078333Y-26312380D01*
X56173571Y-26312380D01*
X56316428Y-26360000D01*
X56364047Y-26407619D01*
X85288809Y-51887380D02*
X84955476Y-51411190D01*
X84717380Y-51887380D02*
X84717380Y-50887380D01*
X85098333Y-50887380D01*
X85193571Y-50935000D01*
X85241190Y-50982619D01*
X85288809Y-51077857D01*
X85288809Y-51220714D01*
X85241190Y-51315952D01*
X85193571Y-51363571D01*
X85098333Y-51411190D01*
X84717380Y-51411190D01*
X86145952Y-51887380D02*
X86145952Y-51363571D01*
X86098333Y-51268333D01*
X86003095Y-51220714D01*
X85812619Y-51220714D01*
X85717380Y-51268333D01*
X86145952Y-51839761D02*
X86050714Y-51887380D01*
X85812619Y-51887380D01*
X85717380Y-51839761D01*
X85669761Y-51744523D01*
X85669761Y-51649285D01*
X85717380Y-51554047D01*
X85812619Y-51506428D01*
X86050714Y-51506428D01*
X86145952Y-51458809D01*
X87050714Y-51887380D02*
X87050714Y-50887380D01*
X87050714Y-51839761D02*
X86955476Y-51887380D01*
X86765000Y-51887380D01*
X86669761Y-51839761D01*
X86622142Y-51792142D01*
X86574523Y-51696904D01*
X86574523Y-51411190D01*
X86622142Y-51315952D01*
X86669761Y-51268333D01*
X86765000Y-51220714D01*
X86955476Y-51220714D01*
X87050714Y-51268333D01*
X87526904Y-51887380D02*
X87526904Y-51220714D01*
X87526904Y-50887380D02*
X87479285Y-50935000D01*
X87526904Y-50982619D01*
X87574523Y-50935000D01*
X87526904Y-50887380D01*
X87526904Y-50982619D01*
X88145952Y-51887380D02*
X88050714Y-51839761D01*
X88003095Y-51792142D01*
X87955476Y-51696904D01*
X87955476Y-51411190D01*
X88003095Y-51315952D01*
X88050714Y-51268333D01*
X88145952Y-51220714D01*
X88288809Y-51220714D01*
X88384047Y-51268333D01*
X88431666Y-51315952D01*
X88479285Y-51411190D01*
X88479285Y-51696904D01*
X88431666Y-51792142D01*
X88384047Y-51839761D01*
X88288809Y-51887380D01*
X88145952Y-51887380D01*
X89669761Y-51887380D02*
X89669761Y-50887380D01*
X90003095Y-51601666D01*
X90336428Y-50887380D01*
X90336428Y-51887380D01*
X90812619Y-51887380D02*
X90812619Y-50887380D01*
X91860238Y-51792142D02*
X91812619Y-51839761D01*
X91669761Y-51887380D01*
X91574523Y-51887380D01*
X91431666Y-51839761D01*
X91336428Y-51744523D01*
X91288809Y-51649285D01*
X91241190Y-51458809D01*
X91241190Y-51315952D01*
X91288809Y-51125476D01*
X91336428Y-51030238D01*
X91431666Y-50935000D01*
X91574523Y-50887380D01*
X91669761Y-50887380D01*
X91812619Y-50935000D01*
X91860238Y-50982619D01*
X94853333Y-26297380D02*
X94520000Y-25821190D01*
X94281904Y-26297380D02*
X94281904Y-25297380D01*
X94662857Y-25297380D01*
X94758095Y-25345000D01*
X94805714Y-25392619D01*
X94853333Y-25487857D01*
X94853333Y-25630714D01*
X94805714Y-25725952D01*
X94758095Y-25773571D01*
X94662857Y-25821190D01*
X94281904Y-25821190D01*
X95710476Y-26297380D02*
X95710476Y-25773571D01*
X95662857Y-25678333D01*
X95567619Y-25630714D01*
X95377142Y-25630714D01*
X95281904Y-25678333D01*
X95710476Y-26249761D02*
X95615238Y-26297380D01*
X95377142Y-26297380D01*
X95281904Y-26249761D01*
X95234285Y-26154523D01*
X95234285Y-26059285D01*
X95281904Y-25964047D01*
X95377142Y-25916428D01*
X95615238Y-25916428D01*
X95710476Y-25868809D01*
X96615238Y-26297380D02*
X96615238Y-25297380D01*
X96615238Y-26249761D02*
X96520000Y-26297380D01*
X96329523Y-26297380D01*
X96234285Y-26249761D01*
X96186666Y-26202142D01*
X96139047Y-26106904D01*
X96139047Y-25821190D01*
X96186666Y-25725952D01*
X96234285Y-25678333D01*
X96329523Y-25630714D01*
X96520000Y-25630714D01*
X96615238Y-25678333D01*
X97091428Y-26297380D02*
X97091428Y-25630714D01*
X97091428Y-25297380D02*
X97043809Y-25345000D01*
X97091428Y-25392619D01*
X97139047Y-25345000D01*
X97091428Y-25297380D01*
X97091428Y-25392619D01*
X97710476Y-26297380D02*
X97615238Y-26249761D01*
X97567619Y-26202142D01*
X97520000Y-26106904D01*
X97520000Y-25821190D01*
X97567619Y-25725952D01*
X97615238Y-25678333D01*
X97710476Y-25630714D01*
X97853333Y-25630714D01*
X97948571Y-25678333D01*
X97996190Y-25725952D01*
X98043809Y-25821190D01*
X98043809Y-26106904D01*
X97996190Y-26202142D01*
X97948571Y-26249761D01*
X97853333Y-26297380D01*
X97710476Y-26297380D01*
X93758095Y-27899761D02*
X93900952Y-27947380D01*
X94139047Y-27947380D01*
X94234285Y-27899761D01*
X94281904Y-27852142D01*
X94329523Y-27756904D01*
X94329523Y-27661666D01*
X94281904Y-27566428D01*
X94234285Y-27518809D01*
X94139047Y-27471190D01*
X93948571Y-27423571D01*
X93853333Y-27375952D01*
X93805714Y-27328333D01*
X93758095Y-27233095D01*
X93758095Y-27137857D01*
X93805714Y-27042619D01*
X93853333Y-26995000D01*
X93948571Y-26947380D01*
X94186666Y-26947380D01*
X94329523Y-26995000D01*
X94758095Y-27280714D02*
X94758095Y-28280714D01*
X94758095Y-27328333D02*
X94853333Y-27280714D01*
X95043809Y-27280714D01*
X95139047Y-27328333D01*
X95186666Y-27375952D01*
X95234285Y-27471190D01*
X95234285Y-27756904D01*
X95186666Y-27852142D01*
X95139047Y-27899761D01*
X95043809Y-27947380D01*
X94853333Y-27947380D01*
X94758095Y-27899761D01*
X96043809Y-27899761D02*
X95948571Y-27947380D01*
X95758095Y-27947380D01*
X95662857Y-27899761D01*
X95615238Y-27804523D01*
X95615238Y-27423571D01*
X95662857Y-27328333D01*
X95758095Y-27280714D01*
X95948571Y-27280714D01*
X96043809Y-27328333D01*
X96091428Y-27423571D01*
X96091428Y-27518809D01*
X95615238Y-27614047D01*
X96948571Y-27947380D02*
X96948571Y-27423571D01*
X96900952Y-27328333D01*
X96805714Y-27280714D01*
X96615238Y-27280714D01*
X96520000Y-27328333D01*
X96948571Y-27899761D02*
X96853333Y-27947380D01*
X96615238Y-27947380D01*
X96520000Y-27899761D01*
X96472380Y-27804523D01*
X96472380Y-27709285D01*
X96520000Y-27614047D01*
X96615238Y-27566428D01*
X96853333Y-27566428D01*
X96948571Y-27518809D01*
X97424761Y-27947380D02*
X97424761Y-26947380D01*
X97520000Y-27566428D02*
X97805714Y-27947380D01*
X97805714Y-27280714D02*
X97424761Y-27661666D01*
X98615238Y-27899761D02*
X98520000Y-27947380D01*
X98329523Y-27947380D01*
X98234285Y-27899761D01*
X98186666Y-27804523D01*
X98186666Y-27423571D01*
X98234285Y-27328333D01*
X98329523Y-27280714D01*
X98520000Y-27280714D01*
X98615238Y-27328333D01*
X98662857Y-27423571D01*
X98662857Y-27518809D01*
X98186666Y-27614047D01*
X99091428Y-27947380D02*
X99091428Y-27280714D01*
X99091428Y-27471190D02*
X99139047Y-27375952D01*
X99186666Y-27328333D01*
X99281904Y-27280714D01*
X99377142Y-27280714D01*
D11*
X104830000Y-40990000D02*
X104830000Y-52990000D01*
X92830000Y-40990000D02*
X104830000Y-40990000D01*
X92830000Y-52990000D02*
X92830000Y-40990000D01*
X104830000Y-52990000D02*
X92830000Y-52990000D01*
X104830000Y-28290000D02*
X104830000Y-40290000D01*
X92830000Y-28290000D02*
X104830000Y-28290000D01*
X92830000Y-40290000D02*
X92830000Y-28290000D01*
X104830000Y-40290000D02*
X92830000Y-40290000D01*
X47570000Y-40290000D02*
X47570000Y-28290000D01*
X59570000Y-40290000D02*
X47570000Y-40290000D01*
X59570000Y-28290000D02*
X59570000Y-40290000D01*
X47570000Y-28290000D02*
X59570000Y-28290000D01*
X47570000Y-52990000D02*
X47570000Y-40990000D01*
X59570000Y-52990000D02*
X47570000Y-52990000D01*
X59570000Y-40990000D02*
X59570000Y-52990000D01*
X47570000Y-40990000D02*
X59570000Y-40990000D01*
D12*
X87025241Y-37714000D02*
X87025241Y-37084000D01*
X87340241Y-37399000D02*
X86710241Y-37399000D01*
X80599000Y-35962000D02*
X80599000Y-35158000D01*
X80639000Y-36193000D02*
X80639000Y-34927000D01*
X80679000Y-36362000D02*
X80679000Y-34758000D01*
X80719000Y-36500000D02*
X80719000Y-34620000D01*
X80759000Y-36619000D02*
X80759000Y-34501000D01*
X80799000Y-36725000D02*
X80799000Y-34395000D01*
X80839000Y-36822000D02*
X80839000Y-34298000D01*
X80879000Y-36910000D02*
X80879000Y-34210000D01*
X80919000Y-36992000D02*
X80919000Y-34128000D01*
X80959000Y-37069000D02*
X80959000Y-34051000D01*
X80999000Y-37141000D02*
X80999000Y-33979000D01*
X81039000Y-37210000D02*
X81039000Y-33910000D01*
X81079000Y-37274000D02*
X81079000Y-33846000D01*
X81119000Y-37336000D02*
X81119000Y-33784000D01*
X81159000Y-37394000D02*
X81159000Y-33726000D01*
X81199000Y-37450000D02*
X81199000Y-33670000D01*
X81239000Y-37504000D02*
X81239000Y-33616000D01*
X81279000Y-37555000D02*
X81279000Y-33565000D01*
X81319000Y-37604000D02*
X81319000Y-33516000D01*
X81359000Y-37652000D02*
X81359000Y-33468000D01*
X81399000Y-37697000D02*
X81399000Y-33423000D01*
X81439000Y-37742000D02*
X81439000Y-33378000D01*
X81479000Y-37784000D02*
X81479000Y-33336000D01*
X81519000Y-37825000D02*
X81519000Y-33295000D01*
X81559000Y-34520000D02*
X81559000Y-33255000D01*
X81559000Y-37865000D02*
X81559000Y-36600000D01*
X81599000Y-34520000D02*
X81599000Y-33217000D01*
X81599000Y-37903000D02*
X81599000Y-36600000D01*
X81639000Y-34520000D02*
X81639000Y-33180000D01*
X81639000Y-37940000D02*
X81639000Y-36600000D01*
X81679000Y-34520000D02*
X81679000Y-33144000D01*
X81679000Y-37976000D02*
X81679000Y-36600000D01*
X81719000Y-34520000D02*
X81719000Y-33110000D01*
X81719000Y-38010000D02*
X81719000Y-36600000D01*
X81759000Y-34520000D02*
X81759000Y-33076000D01*
X81759000Y-38044000D02*
X81759000Y-36600000D01*
X81799000Y-34520000D02*
X81799000Y-33044000D01*
X81799000Y-38076000D02*
X81799000Y-36600000D01*
X81839000Y-34520000D02*
X81839000Y-33012000D01*
X81839000Y-38108000D02*
X81839000Y-36600000D01*
X81879000Y-34520000D02*
X81879000Y-32982000D01*
X81879000Y-38138000D02*
X81879000Y-36600000D01*
X81919000Y-34520000D02*
X81919000Y-32953000D01*
X81919000Y-38167000D02*
X81919000Y-36600000D01*
X81959000Y-34520000D02*
X81959000Y-32924000D01*
X81959000Y-38196000D02*
X81959000Y-36600000D01*
X81999000Y-34520000D02*
X81999000Y-32896000D01*
X81999000Y-38224000D02*
X81999000Y-36600000D01*
X82039000Y-34520000D02*
X82039000Y-32870000D01*
X82039000Y-38250000D02*
X82039000Y-36600000D01*
X82079000Y-34520000D02*
X82079000Y-32844000D01*
X82079000Y-38276000D02*
X82079000Y-36600000D01*
X82119000Y-34520000D02*
X82119000Y-32818000D01*
X82119000Y-38302000D02*
X82119000Y-36600000D01*
X82159000Y-34520000D02*
X82159000Y-32794000D01*
X82159000Y-38326000D02*
X82159000Y-36600000D01*
X82199000Y-34520000D02*
X82199000Y-32770000D01*
X82199000Y-38350000D02*
X82199000Y-36600000D01*
X82239000Y-34520000D02*
X82239000Y-32748000D01*
X82239000Y-38372000D02*
X82239000Y-36600000D01*
X82279000Y-34520000D02*
X82279000Y-32726000D01*
X82279000Y-38394000D02*
X82279000Y-36600000D01*
X82319000Y-34520000D02*
X82319000Y-32704000D01*
X82319000Y-38416000D02*
X82319000Y-36600000D01*
X82359000Y-34520000D02*
X82359000Y-32684000D01*
X82359000Y-38436000D02*
X82359000Y-36600000D01*
X82399000Y-34520000D02*
X82399000Y-32664000D01*
X82399000Y-38456000D02*
X82399000Y-36600000D01*
X82439000Y-34520000D02*
X82439000Y-32644000D01*
X82439000Y-38476000D02*
X82439000Y-36600000D01*
X82479000Y-34520000D02*
X82479000Y-32626000D01*
X82479000Y-38494000D02*
X82479000Y-36600000D01*
X82519000Y-34520000D02*
X82519000Y-32608000D01*
X82519000Y-38512000D02*
X82519000Y-36600000D01*
X82559000Y-34520000D02*
X82559000Y-32590000D01*
X82559000Y-38530000D02*
X82559000Y-36600000D01*
X82599000Y-34520000D02*
X82599000Y-32574000D01*
X82599000Y-38546000D02*
X82599000Y-36600000D01*
X82639000Y-34520000D02*
X82639000Y-32558000D01*
X82639000Y-38562000D02*
X82639000Y-36600000D01*
X82679000Y-34520000D02*
X82679000Y-32542000D01*
X82679000Y-38578000D02*
X82679000Y-36600000D01*
X82719000Y-34520000D02*
X82719000Y-32527000D01*
X82719000Y-38593000D02*
X82719000Y-36600000D01*
X82759000Y-34520000D02*
X82759000Y-32513000D01*
X82759000Y-38607000D02*
X82759000Y-36600000D01*
X82799000Y-34520000D02*
X82799000Y-32499000D01*
X82799000Y-38621000D02*
X82799000Y-36600000D01*
X82839000Y-34520000D02*
X82839000Y-32486000D01*
X82839000Y-38634000D02*
X82839000Y-36600000D01*
X82879000Y-34520000D02*
X82879000Y-32474000D01*
X82879000Y-38646000D02*
X82879000Y-36600000D01*
X82919000Y-34520000D02*
X82919000Y-32462000D01*
X82919000Y-38658000D02*
X82919000Y-36600000D01*
X82959000Y-34520000D02*
X82959000Y-32450000D01*
X82959000Y-38670000D02*
X82959000Y-36600000D01*
X82999000Y-34520000D02*
X82999000Y-32439000D01*
X82999000Y-38681000D02*
X82999000Y-36600000D01*
X83039000Y-34520000D02*
X83039000Y-32429000D01*
X83039000Y-38691000D02*
X83039000Y-36600000D01*
X83079000Y-34520000D02*
X83079000Y-32419000D01*
X83079000Y-38701000D02*
X83079000Y-36600000D01*
X83119000Y-34520000D02*
X83119000Y-32410000D01*
X83119000Y-38710000D02*
X83119000Y-36600000D01*
X83160000Y-34520000D02*
X83160000Y-32401000D01*
X83160000Y-38719000D02*
X83160000Y-36600000D01*
X83200000Y-34520000D02*
X83200000Y-32393000D01*
X83200000Y-38727000D02*
X83200000Y-36600000D01*
X83240000Y-34520000D02*
X83240000Y-32385000D01*
X83240000Y-38735000D02*
X83240000Y-36600000D01*
X83280000Y-34520000D02*
X83280000Y-32378000D01*
X83280000Y-38742000D02*
X83280000Y-36600000D01*
X83320000Y-34520000D02*
X83320000Y-32371000D01*
X83320000Y-38749000D02*
X83320000Y-36600000D01*
X83360000Y-34520000D02*
X83360000Y-32365000D01*
X83360000Y-38755000D02*
X83360000Y-36600000D01*
X83400000Y-34520000D02*
X83400000Y-32359000D01*
X83400000Y-38761000D02*
X83400000Y-36600000D01*
X83440000Y-34520000D02*
X83440000Y-32354000D01*
X83440000Y-38766000D02*
X83440000Y-36600000D01*
X83480000Y-34520000D02*
X83480000Y-32349000D01*
X83480000Y-38771000D02*
X83480000Y-36600000D01*
X83520000Y-34520000D02*
X83520000Y-32345000D01*
X83520000Y-38775000D02*
X83520000Y-36600000D01*
X83560000Y-34520000D02*
X83560000Y-32342000D01*
X83560000Y-38778000D02*
X83560000Y-36600000D01*
X83600000Y-34520000D02*
X83600000Y-32338000D01*
X83600000Y-38782000D02*
X83600000Y-36600000D01*
X83640000Y-38784000D02*
X83640000Y-32336000D01*
X83680000Y-38787000D02*
X83680000Y-32333000D01*
X83720000Y-38788000D02*
X83720000Y-32332000D01*
X83760000Y-38790000D02*
X83760000Y-32330000D01*
X83800000Y-38790000D02*
X83800000Y-32330000D01*
X83840000Y-38790000D02*
X83840000Y-32330000D01*
X87110000Y-35560000D02*
G75*
G03X87110000Y-35560000I-3270000J0D01*
G01*
X85658478Y-45653478D02*
G75*
G03X83820000Y-41215000I-1838478J1838478D01*
G01*
X81981522Y-45653478D02*
G75*
G02X83820000Y-41215000I1838478J1838478D01*
G01*
X82020000Y-45665000D02*
X85620000Y-45665000D01*
X47695000Y-20710000D02*
X47695000Y-27550000D01*
X52635000Y-20710000D02*
X52635000Y-27550000D01*
X50815000Y-27550000D02*
X52635000Y-27550000D01*
X47695000Y-27550000D02*
X49515000Y-27550000D01*
X50815000Y-20710000D02*
X52635000Y-20710000D01*
X47695000Y-20710000D02*
X49515000Y-20710000D01*
X73910000Y-39220000D02*
X73910000Y-36980000D01*
X73670000Y-39220000D02*
X73670000Y-36980000D01*
X73790000Y-39220000D02*
X73790000Y-36980000D01*
X69620000Y-38100000D02*
X70270000Y-38100000D01*
X75160000Y-38100000D02*
X74510000Y-38100000D01*
X70270000Y-39220000D02*
X74510000Y-39220000D01*
X70270000Y-36980000D02*
X70270000Y-39220000D01*
X74510000Y-36980000D02*
X70270000Y-36980000D01*
X74510000Y-39220000D02*
X74510000Y-36980000D01*
X74510000Y-43665000D02*
X74510000Y-41425000D01*
X74510000Y-41425000D02*
X70270000Y-41425000D01*
X70270000Y-41425000D02*
X70270000Y-43665000D01*
X70270000Y-43665000D02*
X74510000Y-43665000D01*
X75160000Y-42545000D02*
X74510000Y-42545000D01*
X69620000Y-42545000D02*
X70270000Y-42545000D01*
X73790000Y-43665000D02*
X73790000Y-41425000D01*
X73670000Y-43665000D02*
X73670000Y-41425000D01*
X73910000Y-43665000D02*
X73910000Y-41425000D01*
X91885000Y-20520000D02*
X91885000Y-31000000D01*
X91885000Y-31000000D02*
X60915000Y-31000000D01*
X60915000Y-31000000D02*
X60915000Y-20520000D01*
X71110000Y-31894338D02*
X70610000Y-31894338D01*
X70610000Y-31894338D02*
X70860000Y-31461325D01*
X70860000Y-31461325D02*
X71110000Y-31894338D01*
X75660000Y-34695000D02*
X75660000Y-35025000D01*
X75660000Y-35025000D02*
X69120000Y-35025000D01*
X69120000Y-35025000D02*
X69120000Y-34695000D01*
X75660000Y-32615000D02*
X75660000Y-32285000D01*
X75660000Y-32285000D02*
X69120000Y-32285000D01*
X69120000Y-32285000D02*
X69120000Y-32615000D01*
X99765000Y-20710000D02*
X101585000Y-20710000D01*
X102885000Y-20710000D02*
X104705000Y-20710000D01*
X99765000Y-27550000D02*
X101585000Y-27550000D01*
X102885000Y-27550000D02*
X104705000Y-27550000D01*
X104705000Y-20710000D02*
X104705000Y-27550000D01*
X99765000Y-20710000D02*
X99765000Y-27550000D01*
D13*
X99918333Y-53612333D02*
X99918333Y-54612333D01*
X99851666Y-54812333D01*
X99718333Y-54945666D01*
X99518333Y-55012333D01*
X99385000Y-55012333D01*
X101251666Y-53612333D02*
X100585000Y-53612333D01*
X100518333Y-54279000D01*
X100585000Y-54212333D01*
X100718333Y-54145666D01*
X101051666Y-54145666D01*
X101185000Y-54212333D01*
X101251666Y-54279000D01*
X101318333Y-54412333D01*
X101318333Y-54745666D01*
X101251666Y-54879000D01*
X101185000Y-54945666D01*
X101051666Y-55012333D01*
X100718333Y-55012333D01*
X100585000Y-54945666D01*
X100518333Y-54879000D01*
X99918333Y-40912333D02*
X99918333Y-41912333D01*
X99851666Y-42112333D01*
X99718333Y-42245666D01*
X99518333Y-42312333D01*
X99385000Y-42312333D01*
X101185000Y-41379000D02*
X101185000Y-42312333D01*
X100851666Y-40845666D02*
X100518333Y-41845666D01*
X101385000Y-41845666D01*
X51548333Y-26134333D02*
X51548333Y-27134333D01*
X51481666Y-27334333D01*
X51348333Y-27467666D01*
X51148333Y-27534333D01*
X51015000Y-27534333D01*
X52081666Y-26134333D02*
X52948333Y-26134333D01*
X52481666Y-26667666D01*
X52681666Y-26667666D01*
X52815000Y-26734333D01*
X52881666Y-26801000D01*
X52948333Y-26934333D01*
X52948333Y-27267666D01*
X52881666Y-27401000D01*
X52815000Y-27467666D01*
X52681666Y-27534333D01*
X52281666Y-27534333D01*
X52148333Y-27467666D01*
X52081666Y-27401000D01*
X51548333Y-38834333D02*
X51548333Y-39834333D01*
X51481666Y-40034333D01*
X51348333Y-40167666D01*
X51148333Y-40234333D01*
X51015000Y-40234333D01*
X52148333Y-38967666D02*
X52215000Y-38901000D01*
X52348333Y-38834333D01*
X52681666Y-38834333D01*
X52815000Y-38901000D01*
X52881666Y-38967666D01*
X52948333Y-39101000D01*
X52948333Y-39234333D01*
X52881666Y-39434333D01*
X52081666Y-40234333D01*
X52948333Y-40234333D01*
D10*
X83673333Y-40317142D02*
X83625714Y-40364761D01*
X83482857Y-40412380D01*
X83387619Y-40412380D01*
X83244761Y-40364761D01*
X83149523Y-40269523D01*
X83101904Y-40174285D01*
X83054285Y-39983809D01*
X83054285Y-39840952D01*
X83101904Y-39650476D01*
X83149523Y-39555238D01*
X83244761Y-39460000D01*
X83387619Y-39412380D01*
X83482857Y-39412380D01*
X83625714Y-39460000D01*
X83673333Y-39507619D01*
X84625714Y-40412380D02*
X84054285Y-40412380D01*
X84340000Y-40412380D02*
X84340000Y-39412380D01*
X84244761Y-39555238D01*
X84149523Y-39650476D01*
X84054285Y-39698095D01*
X83724761Y-48172619D02*
X83629523Y-48125000D01*
X83534285Y-48029761D01*
X83391428Y-47886904D01*
X83296190Y-47839285D01*
X83200952Y-47839285D01*
X83248571Y-48077380D02*
X83153333Y-48029761D01*
X83058095Y-47934523D01*
X83010476Y-47744047D01*
X83010476Y-47410714D01*
X83058095Y-47220238D01*
X83153333Y-47125000D01*
X83248571Y-47077380D01*
X83439047Y-47077380D01*
X83534285Y-47125000D01*
X83629523Y-47220238D01*
X83677142Y-47410714D01*
X83677142Y-47744047D01*
X83629523Y-47934523D01*
X83534285Y-48029761D01*
X83439047Y-48077380D01*
X83248571Y-48077380D01*
X84629523Y-48077380D02*
X84058095Y-48077380D01*
X84343809Y-48077380D02*
X84343809Y-47077380D01*
X84248571Y-47220238D01*
X84153333Y-47315476D01*
X84058095Y-47363095D01*
X54649761Y-22042380D02*
X54316428Y-21566190D01*
X54078333Y-22042380D02*
X54078333Y-21042380D01*
X54459285Y-21042380D01*
X54554523Y-21090000D01*
X54602142Y-21137619D01*
X54649761Y-21232857D01*
X54649761Y-21375714D01*
X54602142Y-21470952D01*
X54554523Y-21518571D01*
X54459285Y-21566190D01*
X54078333Y-21566190D01*
X54935476Y-21042380D02*
X55268809Y-22042380D01*
X55602142Y-21042380D01*
X56459285Y-22042380D02*
X55887857Y-22042380D01*
X56173571Y-22042380D02*
X56173571Y-21042380D01*
X56078333Y-21185238D01*
X55983095Y-21280476D01*
X55887857Y-21328095D01*
X71651904Y-40672380D02*
X71651904Y-39672380D01*
X71890000Y-39672380D01*
X72032857Y-39720000D01*
X72128095Y-39815238D01*
X72175714Y-39910476D01*
X72223333Y-40100952D01*
X72223333Y-40243809D01*
X72175714Y-40434285D01*
X72128095Y-40529523D01*
X72032857Y-40624761D01*
X71890000Y-40672380D01*
X71651904Y-40672380D01*
X73175714Y-40672380D02*
X72604285Y-40672380D01*
X72890000Y-40672380D02*
X72890000Y-39672380D01*
X72794761Y-39815238D01*
X72699523Y-39910476D01*
X72604285Y-39958095D01*
X75938095Y-40352380D02*
X75938095Y-39352380D01*
X76509523Y-40352380D02*
X76080952Y-39780952D01*
X76509523Y-39352380D02*
X75938095Y-39923809D01*
X71651904Y-44902380D02*
X71651904Y-43902380D01*
X71890000Y-43902380D01*
X72032857Y-43950000D01*
X72128095Y-44045238D01*
X72175714Y-44140476D01*
X72223333Y-44330952D01*
X72223333Y-44473809D01*
X72175714Y-44664285D01*
X72128095Y-44759523D01*
X72032857Y-44854761D01*
X71890000Y-44902380D01*
X71651904Y-44902380D01*
X72604285Y-43997619D02*
X72651904Y-43950000D01*
X72747142Y-43902380D01*
X72985238Y-43902380D01*
X73080476Y-43950000D01*
X73128095Y-43997619D01*
X73175714Y-44092857D01*
X73175714Y-44188095D01*
X73128095Y-44330952D01*
X72556666Y-44902380D01*
X73175714Y-44902380D01*
X75938095Y-44797380D02*
X75938095Y-43797380D01*
X76509523Y-44797380D02*
X76080952Y-44225952D01*
X76509523Y-43797380D02*
X75938095Y-44368809D01*
X75866666Y-22312380D02*
X75866666Y-23026666D01*
X75819047Y-23169523D01*
X75723809Y-23264761D01*
X75580952Y-23312380D01*
X75485714Y-23312380D01*
X76866666Y-23312380D02*
X76295238Y-23312380D01*
X76580952Y-23312380D02*
X76580952Y-22312380D01*
X76485714Y-22455238D01*
X76390476Y-22550476D01*
X76295238Y-22598095D01*
X72223333Y-36477380D02*
X71890000Y-36001190D01*
X71651904Y-36477380D02*
X71651904Y-35477380D01*
X72032857Y-35477380D01*
X72128095Y-35525000D01*
X72175714Y-35572619D01*
X72223333Y-35667857D01*
X72223333Y-35810714D01*
X72175714Y-35905952D01*
X72128095Y-35953571D01*
X72032857Y-36001190D01*
X71651904Y-36001190D01*
X73175714Y-36477380D02*
X72604285Y-36477380D01*
X72890000Y-36477380D02*
X72890000Y-35477380D01*
X72794761Y-35620238D01*
X72699523Y-35715476D01*
X72604285Y-35763095D01*
X96559761Y-22042380D02*
X96226428Y-21566190D01*
X95988333Y-22042380D02*
X95988333Y-21042380D01*
X96369285Y-21042380D01*
X96464523Y-21090000D01*
X96512142Y-21137619D01*
X96559761Y-21232857D01*
X96559761Y-21375714D01*
X96512142Y-21470952D01*
X96464523Y-21518571D01*
X96369285Y-21566190D01*
X95988333Y-21566190D01*
X96845476Y-21042380D02*
X97178809Y-22042380D01*
X97512142Y-21042380D01*
X97797857Y-21137619D02*
X97845476Y-21090000D01*
X97940714Y-21042380D01*
X98178809Y-21042380D01*
X98274047Y-21090000D01*
X98321666Y-21137619D01*
X98369285Y-21232857D01*
X98369285Y-21328095D01*
X98321666Y-21470952D01*
X97750238Y-22042380D01*
X98369285Y-22042380D01*
M02*
