M48
; DRILL file {KiCad (5.1.5)-3} date 15.05.2020 10:26:41
; FORMAT={-:-/ absolute / metric / decimal}
; #@! TF.CreationDate,2020-05-15T10:26:41+02:00
; #@! TF.GenerationSoftware,Kicad,Pcbnew,(5.1.5)-3
; #@! TF.FileFunction,NonPlated,1,2,NPTH
FMAT,2
METRIC
T1C1.300
%
G90
G05
T1
X95.33Y-46.99
X100.33Y-41.99
X100.33Y-51.99
X102.83Y-41.99
X102.83Y-51.99
X49.57Y-41.99
X49.57Y-51.99
X52.07Y-41.99
X52.07Y-51.99
X57.07Y-46.99
X49.57Y-29.29
X49.57Y-39.29
X52.07Y-29.29
X52.07Y-39.29
X57.07Y-34.29
X95.33Y-34.29
X100.33Y-29.29
X100.33Y-39.29
X102.83Y-29.29
X102.83Y-39.29
T0
M30
